<svg xmlns="http://www.w3.org/2000/svg" xmlns:xlink="http://www.w3.org/1999/xlink" width="500" zoomAndPan="magnify" viewBox="0 0 375 374.999991" height="500" preserveAspectRatio="xMidYMid meet" version="1.2"><defs><clipPath id="26027c911a"><path d="M 112.257812 195 L 262.738281 195 L 262.738281 230.726562 L 112.257812 230.726562 Z M 112.257812 195 "/></clipPath><clipPath id="57c831f618"><path d="M 112.257812 89.726562 L 223 89.726562 L 223 207 L 112.257812 207 Z M 112.257812 89.726562 "/></clipPath><clipPath id="2f6df9dd2a"><path d="M 227.804688 194.71875 L 265.558594 194.71875 L 265.558594 236 L 227.804688 236 Z M 227.804688 194.71875 "/></clipPath><clipPath id="57e60a2742"><path d="M 246.683594 194.71875 C 236.257812 194.71875 227.804688 203.933594 227.804688 215.296875 C 227.804688 226.660156 236.257812 235.871094 246.683594 235.871094 C 257.109375 235.871094 265.558594 226.660156 265.558594 215.296875 C 265.558594 203.933594 257.109375 194.71875 246.683594 194.71875 Z M 246.683594 194.71875 "/></clipPath><clipPath id="6794496e50"><path d="M 109.570312 194.71875 L 149.46875 194.71875 L 149.46875 238.980469 L 109.570312 238.980469 Z M 109.570312 194.71875 "/></clipPath><clipPath id="fcb2ccb0f5"><path d="M 129.519531 194.71875 C 118.5 194.71875 109.570312 204.601562 109.570312 216.796875 C 109.570312 228.988281 118.5 238.871094 129.519531 238.871094 C 140.535156 238.871094 149.46875 228.988281 149.46875 216.796875 C 149.46875 204.601562 140.535156 194.71875 129.519531 194.71875 Z M 129.519531 194.71875 "/></clipPath><clipPath id="789f212cac"><path d="M 119.878906 208.378906 L 139.160156 208.378906 L 139.160156 227.660156 L 119.878906 227.660156 Z M 119.878906 208.378906 "/></clipPath><clipPath id="4664889717"><path d="M 129.519531 208.378906 C 124.195312 208.378906 119.878906 212.695312 119.878906 218.019531 C 119.878906 223.34375 124.195312 227.660156 129.519531 227.660156 C 134.84375 227.660156 139.160156 223.34375 139.160156 218.019531 C 139.160156 212.695312 134.84375 208.378906 129.519531 208.378906 Z M 129.519531 208.378906 "/></clipPath><clipPath id="c33a98f894"><path d="M 237.636719 206.292969 L 255.78125 206.292969 L 255.78125 224.296875 L 237.636719 224.296875 Z M 237.636719 206.292969 "/></clipPath><clipPath id="6e4c85c79e"><path d="M 246.683594 206.292969 C 241.6875 206.292969 237.636719 210.324219 237.636719 215.296875 C 237.636719 220.269531 241.6875 224.296875 246.683594 224.296875 C 251.679688 224.296875 255.730469 220.269531 255.730469 215.296875 C 255.730469 210.324219 251.679688 206.292969 246.683594 206.292969 Z M 246.683594 206.292969 "/></clipPath><clipPath id="76ac243ca6"><path d="M 229.074219 181.089844 L 264.320312 181.089844 L 264.320312 193.910156 L 229.074219 193.910156 Z M 229.074219 181.089844 "/></clipPath><clipPath id="397c0ebd29"><path d="M 235.074219 181.089844 L 258.292969 181.089844 C 259.882812 181.089844 261.410156 181.722656 262.535156 182.847656 C 263.660156 183.972656 264.292969 185.5 264.292969 187.089844 L 264.292969 187.910156 C 264.292969 189.5 263.660156 191.027344 262.535156 192.152344 C 261.410156 193.277344 259.882812 193.910156 258.292969 193.910156 L 235.074219 193.910156 C 233.480469 193.910156 231.953125 193.277344 230.828125 192.152344 C 229.703125 191.027344 229.074219 189.5 229.074219 187.910156 L 229.074219 187.089844 C 229.074219 185.5 229.703125 183.972656 230.828125 182.847656 C 231.953125 181.722656 233.480469 181.089844 235.074219 181.089844 Z M 235.074219 181.089844 "/></clipPath></defs><g id="0812204b0f"><rect x="0" width="375" y="0" height="374.999991" style="fill:#ffffff;fill-opacity:1;stroke:none;"/><rect x="0" width="375" y="0" height="374.999991" style="fill:#ffffff;fill-opacity:1;stroke:none;"/><g clip-rule="nonzero" clip-path="url(#26027c911a)"><path style=" stroke:none;fill-rule:nonzero;fill:#3b3f3f;fill-opacity:1;" d="M 139.675781 213.328125 L 134.914062 205.085938 L 125.398438 205.085938 L 120.640625 213.328125 L 125.398438 221.570312 L 134.914062 221.570312 Z M 263.011719 213.328125 C 263.011719 222.90625 255.246094 230.667969 245.667969 230.667969 C 237.800781 230.667969 231.15625 225.425781 229.039062 218.242188 L 146.226562 218.242188 C 144.109375 225.425781 137.46875 230.667969 129.597656 230.667969 C 120.019531 230.667969 112.257812 222.90625 112.257812 213.328125 C 112.257812 203.75 120.019531 195.988281 129.597656 195.988281 C 137.46875 195.988281 144.109375 201.230469 146.226562 208.414062 L 229.039062 208.414062 C 231.15625 201.230469 237.800781 195.988281 245.667969 195.988281 C 247.550781 195.988281 249.359375 196.292969 251.058594 196.847656 L 237.035156 210.867188 L 239.5 220.058594 L 248.691406 222.519531 L 255.421875 215.792969 L 262.410156 208.804688 C 262.800781 210.246094 263.011719 211.761719 263.011719 213.328125 "/></g><g clip-rule="nonzero" clip-path="url(#57c831f618)"><path style=" stroke:none;fill-rule:nonzero;fill:#f99026;fill-opacity:1;" d="M 116.796875 199.324219 C 120.300781 196.121094 124.847656 194.355469 129.597656 194.355469 C 136.988281 194.355469 143.757812 198.699219 146.847656 205.425781 C 147.261719 206.324219 148.148438 206.855469 149.082031 206.855469 C 149.425781 206.855469 149.773438 206.785156 150.105469 206.632812 C 151.335938 206.066406 151.878906 204.605469 151.3125 203.375 C 149.015625 198.367188 145.085938 194.425781 140.34375 192.023438 L 141.816406 186.429688 L 160.824219 206.125 L 217.726562 206.125 C 220.4375 206.125 222.636719 203.925781 222.636719 201.210938 C 222.636719 198.5 220.4375 196.300781 217.726562 196.300781 L 164.996094 196.300781 L 144.746094 175.316406 L 148.390625 161.46875 C 148.917969 159.46875 148.132812 157.4375 146.570312 156.277344 L 162.707031 94.828125 L 152.503906 95.003906 C 151.574219 92.488281 149.160156 90.691406 146.320312 90.691406 C 142.675781 90.691406 139.71875 93.644531 139.71875 97.289062 C 139.71875 100.933594 142.675781 103.890625 146.320312 103.890625 C 149.484375 103.890625 152.125 101.660156 152.769531 98.683594 L 157.90625 98.597656 L 152.226562 120.21875 C 139.625 116.601562 138.140625 105.628906 138.035156 101.542969 L 139.046875 101.25 C 140.375 103.40625 142.753906 104.847656 145.476562 104.847656 C 145.65625 104.847656 145.835938 104.832031 146.011719 104.820312 C 142.089844 104.546875 138.992188 101.28125 138.992188 97.289062 C 138.992188 93.296875 142.089844 90.035156 146.011719 89.757812 C 145.835938 89.742188 145.65625 89.730469 145.476562 89.730469 C 141.300781 89.730469 137.917969 93.113281 137.917969 97.289062 C 137.917969 97.667969 137.953125 98.039062 138.007812 98.402344 L 134.148438 99.917969 C 133.753906 100.074219 133.492188 100.453125 133.484375 100.878906 C 133.460938 102.082031 133.273438 104.589844 132.199219 106.460938 C 132.070312 106.683594 132.25 106.960938 132.503906 106.941406 C 133.628906 106.847656 135.675781 105.035156 136.269531 102.050781 L 136.84375 101.882812 C 137.085938 106.464844 139.023438 117.695312 151.917969 121.40625 L 143.003906 155.347656 C 141.085938 155.601562 139.414062 156.976562 138.890625 158.964844 L 130.847656 189.484375 C 130.433594 189.464844 130.015625 189.441406 129.597656 189.441406 C 123.617188 189.441406 117.894531 191.664062 113.480469 195.699219 C 112.480469 196.613281 112.410156 198.167969 113.324219 199.167969 C 114.242188 200.171875 115.796875 200.238281 116.796875 199.324219 "/></g><g style="fill:#3b3f3f;fill-opacity:1;"><g transform="translate(107.840033, 247.473103)"><path style="stroke:none" d="M 3.3125 -2.703125 L 2.390625 -1.734375 L 2.390625 0 L 0.8125 0 L 0.8125 -6.875 L 2.390625 -6.875 L 2.390625 -3.65625 L 5.4375 -6.875 L 7.203125 -6.875 L 4.359375 -3.8125 L 7.375 0 L 5.515625 0 Z M 3.3125 -2.703125 "/></g></g><g style="fill:#3b3f3f;fill-opacity:1;"><g transform="translate(118.701845, 247.473103)"><path style="stroke:none" d="M 6.140625 -1.28125 L 6.140625 0 L 0.8125 0 L 0.8125 -6.875 L 6 -6.875 L 6 -5.59375 L 2.390625 -5.59375 L 2.390625 -4.109375 L 5.578125 -4.109375 L 5.578125 -2.859375 L 2.390625 -2.859375 L 2.390625 -1.28125 Z M 6.140625 -1.28125 "/></g></g><g style="fill:#3b3f3f;fill-opacity:1;"><g transform="translate(128.886898, 247.473103)"><path style="stroke:none" d="M 7.109375 -6.875 L 7.109375 0 L 5.8125 0 L 2.390625 -4.171875 L 2.390625 0 L 0.8125 0 L 0.8125 -6.875 L 2.125 -6.875 L 5.546875 -2.703125 L 5.546875 -6.875 Z M 7.109375 -6.875 "/></g></g><g style="fill:#3b3f3f;fill-opacity:1;"><g transform="translate(140.415659, 247.473103)"><path style="stroke:none" d="M 2.234375 -5.578125 L 0.046875 -5.578125 L 0.046875 -6.875 L 6.03125 -6.875 L 6.03125 -5.578125 L 3.828125 -5.578125 L 3.828125 0 L 2.234375 0 Z M 2.234375 -5.578125 "/></g></g><g style="fill:#3b3f3f;fill-opacity:1;"><g transform="translate(150.080875, 247.473103)"><path style="stroke:none" d="M 6.140625 -1.28125 L 6.140625 0 L 0.8125 0 L 0.8125 -6.875 L 6 -6.875 L 6 -5.59375 L 2.390625 -5.59375 L 2.390625 -4.109375 L 5.578125 -4.109375 L 5.578125 -2.859375 L 2.390625 -2.859375 L 2.390625 -1.28125 Z M 6.140625 -1.28125 "/></g></g><g style="fill:#3b3f3f;fill-opacity:1;"><g transform="translate(160.265928, 247.473103)"><path style="stroke:none" d="M 3.3125 -2.703125 L 2.390625 -1.734375 L 2.390625 0 L 0.8125 0 L 0.8125 -6.875 L 2.390625 -6.875 L 2.390625 -3.65625 L 5.4375 -6.875 L 7.203125 -6.875 L 4.359375 -3.8125 L 7.375 0 L 5.515625 0 Z M 3.3125 -2.703125 "/></g></g><g style="fill:#3b3f3f;fill-opacity:1;"><g transform="translate(171.127739, 247.473103)"><path style="stroke:none" d="M 6.140625 -1.28125 L 6.140625 0 L 0.8125 0 L 0.8125 -6.875 L 6 -6.875 L 6 -5.59375 L 2.390625 -5.59375 L 2.390625 -4.109375 L 5.578125 -4.109375 L 5.578125 -2.859375 L 2.390625 -2.859375 L 2.390625 -1.28125 Z M 6.140625 -1.28125 "/></g></g><g style="fill:#3b3f3f;fill-opacity:1;"><g transform="translate(181.312792, 247.473103)"><path style="stroke:none" d="M 7.109375 -6.875 L 7.109375 0 L 5.8125 0 L 2.390625 -4.171875 L 2.390625 0 L 0.8125 0 L 0.8125 -6.875 L 2.125 -6.875 L 5.546875 -2.703125 L 5.546875 -6.875 Z M 7.109375 -6.875 "/></g></g><g style="fill:#3b3f3f;fill-opacity:1;"><g transform="translate(192.841553, 247.473103)"><path style="stroke:none" d="M 6.140625 -1.28125 L 6.140625 0 L 0.8125 0 L 0.8125 -6.875 L 6 -6.875 L 6 -5.59375 L 2.390625 -5.59375 L 2.390625 -4.109375 L 5.578125 -4.109375 L 5.578125 -2.859375 L 2.390625 -2.859375 L 2.390625 -1.28125 Z M 6.140625 -1.28125 "/></g></g><g style="fill:#3b3f3f;fill-opacity:1;"><g transform="translate(203.026606, 247.473103)"><path style="stroke:none" d="M 3.078125 0.125 C 2.523438 0.125 1.992188 0.0507812 1.484375 -0.09375 C 0.984375 -0.25 0.582031 -0.441406 0.28125 -0.671875 L 0.8125 -1.875 C 1.101562 -1.65625 1.453125 -1.476562 1.859375 -1.34375 C 2.265625 -1.21875 2.671875 -1.15625 3.078125 -1.15625 C 3.535156 -1.15625 3.867188 -1.222656 4.078125 -1.359375 C 4.296875 -1.492188 4.40625 -1.671875 4.40625 -1.890625 C 4.40625 -2.054688 4.335938 -2.191406 4.203125 -2.296875 C 4.078125 -2.410156 3.914062 -2.5 3.71875 -2.5625 C 3.519531 -2.625 3.253906 -2.695312 2.921875 -2.78125 C 2.390625 -2.90625 1.957031 -3.03125 1.625 -3.15625 C 1.289062 -3.28125 1.003906 -3.476562 0.765625 -3.75 C 0.523438 -4.019531 0.40625 -4.382812 0.40625 -4.84375 C 0.40625 -5.25 0.515625 -5.613281 0.734375 -5.9375 C 0.953125 -6.257812 1.273438 -6.515625 1.703125 -6.703125 C 2.140625 -6.890625 2.675781 -6.984375 3.3125 -6.984375 C 3.75 -6.984375 4.175781 -6.929688 4.59375 -6.828125 C 5.007812 -6.722656 5.375 -6.570312 5.6875 -6.375 L 5.203125 -5.171875 C 4.566406 -5.523438 3.929688 -5.703125 3.296875 -5.703125 C 2.847656 -5.703125 2.515625 -5.628906 2.296875 -5.484375 C 2.085938 -5.347656 1.984375 -5.160156 1.984375 -4.921875 C 1.984375 -4.691406 2.109375 -4.519531 2.359375 -4.40625 C 2.609375 -4.289062 2.984375 -4.175781 3.484375 -4.0625 C 4.003906 -3.9375 4.429688 -3.8125 4.765625 -3.6875 C 5.097656 -3.5625 5.382812 -3.363281 5.625 -3.09375 C 5.863281 -2.832031 5.984375 -2.472656 5.984375 -2.015625 C 5.984375 -1.617188 5.875 -1.257812 5.65625 -0.9375 C 5.4375 -0.613281 5.109375 -0.351562 4.671875 -0.15625 C 4.234375 0.03125 3.703125 0.125 3.078125 0.125 Z M 3.078125 0.125 "/></g></g><g style="fill:#3b3f3f;fill-opacity:1;"><g transform="translate(212.887982, 247.473103)"><path style="stroke:none" d="M 2.234375 -5.578125 L 0.046875 -5.578125 L 0.046875 -6.875 L 6.03125 -6.875 L 6.03125 -5.578125 L 3.828125 -5.578125 L 3.828125 0 L 2.234375 0 Z M 2.234375 -5.578125 "/></g></g><g style="fill:#3b3f3f;fill-opacity:1;"><g transform="translate(222.553198, 247.473103)"><path style="stroke:none" d="M 6.140625 -1.28125 L 6.140625 0 L 0.8125 0 L 0.8125 -6.875 L 6 -6.875 L 6 -5.59375 L 2.390625 -5.59375 L 2.390625 -4.109375 L 5.578125 -4.109375 L 5.578125 -2.859375 L 2.390625 -2.859375 L 2.390625 -1.28125 Z M 6.140625 -1.28125 "/></g></g><g style="fill:#3b3f3f;fill-opacity:1;"><g transform="translate(232.738251, 247.473103)"><path style="stroke:none" d="M 3.78125 -6.875 C 4.394531 -6.875 4.925781 -6.769531 5.375 -6.5625 C 5.820312 -6.363281 6.164062 -6.078125 6.40625 -5.703125 C 6.644531 -5.328125 6.765625 -4.882812 6.765625 -4.375 C 6.765625 -3.875 6.644531 -3.4375 6.40625 -3.0625 C 6.164062 -2.6875 5.820312 -2.394531 5.375 -2.1875 C 4.925781 -1.988281 4.394531 -1.890625 3.78125 -1.890625 L 2.40625 -1.890625 L 2.40625 0 L 0.8125 0 L 0.8125 -6.875 Z M 3.703125 -3.1875 C 4.179688 -3.1875 4.539062 -3.289062 4.78125 -3.5 C 5.03125 -3.707031 5.15625 -4 5.15625 -4.375 C 5.15625 -4.757812 5.03125 -5.054688 4.78125 -5.265625 C 4.539062 -5.472656 4.179688 -5.578125 3.703125 -5.578125 L 2.40625 -5.578125 L 2.40625 -3.1875 Z M 3.703125 -3.1875 "/></g></g><g style="fill:#3b3f3f;fill-opacity:1;"><g transform="translate(243.521596, 247.473103)"><path style="stroke:none" d="M 1.28125 0.078125 C 1.019531 0.078125 0.796875 -0.0078125 0.609375 -0.1875 C 0.421875 -0.375 0.328125 -0.609375 0.328125 -0.890625 C 0.328125 -1.171875 0.421875 -1.394531 0.609375 -1.5625 C 0.796875 -1.738281 1.019531 -1.828125 1.28125 -1.828125 C 1.550781 -1.828125 1.773438 -1.738281 1.953125 -1.5625 C 2.140625 -1.394531 2.234375 -1.171875 2.234375 -0.890625 C 2.234375 -0.609375 2.140625 -0.375 1.953125 -0.1875 C 1.773438 -0.0078125 1.550781 0.078125 1.28125 0.078125 Z M 1.28125 0.078125 "/></g></g><g style="fill:#3b3f3f;fill-opacity:1;"><g transform="translate(249.695109, 247.473103)"><path style="stroke:none" d="M 7.109375 -6.875 L 7.109375 0 L 5.8125 0 L 2.390625 -4.171875 L 2.390625 0 L 0.8125 0 L 0.8125 -6.875 L 2.125 -6.875 L 5.546875 -2.703125 L 5.546875 -6.875 Z M 7.109375 -6.875 "/></g></g><g style="fill:#3b3f3f;fill-opacity:1;"><g transform="translate(261.22387, 247.473103)"><path style="stroke:none" d="M 0.8125 -6.875 L 2.40625 -6.875 L 2.40625 -1.296875 L 5.84375 -1.296875 L 5.84375 0 L 0.8125 0 Z M 0.8125 -6.875 "/></g></g><g clip-rule="nonzero" clip-path="url(#2f6df9dd2a)"><g clip-rule="nonzero" clip-path="url(#57e60a2742)"><path style=" stroke:none;fill-rule:nonzero;fill:#545454;fill-opacity:1;" d="M 227.804688 194.71875 L 265.558594 194.71875 L 265.558594 235.867188 L 227.804688 235.867188 Z M 227.804688 194.71875 "/></g></g><g clip-rule="nonzero" clip-path="url(#6794496e50)"><g clip-rule="nonzero" clip-path="url(#fcb2ccb0f5)"><path style=" stroke:none;fill-rule:nonzero;fill:#545454;fill-opacity:1;" d="M 109.570312 194.71875 L 149.46875 194.71875 L 149.46875 238.828125 L 109.570312 238.828125 Z M 109.570312 194.71875 "/></g></g><g clip-rule="nonzero" clip-path="url(#789f212cac)"><g clip-rule="nonzero" clip-path="url(#4664889717)"><path style=" stroke:none;fill-rule:nonzero;fill:#ffffff;fill-opacity:1;" d="M 119.878906 208.378906 L 139.160156 208.378906 L 139.160156 227.660156 L 119.878906 227.660156 Z M 119.878906 208.378906 "/></g></g><g clip-rule="nonzero" clip-path="url(#c33a98f894)"><g clip-rule="nonzero" clip-path="url(#6e4c85c79e)"><path style=" stroke:none;fill-rule:nonzero;fill:#ffffff;fill-opacity:1;" d="M 237.636719 206.292969 L 255.710938 206.292969 L 255.710938 224.296875 L 237.636719 224.296875 Z M 237.636719 206.292969 "/></g></g><g clip-rule="nonzero" clip-path="url(#76ac243ca6)"><g clip-rule="nonzero" clip-path="url(#397c0ebd29)"><path style=" stroke:none;fill-rule:nonzero;fill:#5271ff;fill-opacity:1;" d="M 229.074219 181.089844 L 264.273438 181.089844 L 264.273438 193.910156 L 229.074219 193.910156 Z M 229.074219 181.089844 "/></g></g><g style="fill:#ffffff;fill-opacity:1;"><g transform="translate(232.637713, 189.369596)"><path style="stroke:none" d="M 4.03125 0 L 3 -1.484375 L 1.859375 -1.484375 L 1.859375 0 L 0.625 0 L 0.625 -5.328125 L 2.9375 -5.328125 C 3.40625 -5.328125 3.8125 -5.25 4.15625 -5.09375 C 4.507812 -4.9375 4.78125 -4.710938 4.96875 -4.421875 C 5.15625 -4.128906 5.25 -3.785156 5.25 -3.390625 C 5.25 -2.992188 5.15625 -2.648438 4.96875 -2.359375 C 4.78125 -2.078125 4.507812 -1.863281 4.15625 -1.71875 L 5.34375 0 Z M 4 -3.390625 C 4 -3.691406 3.898438 -3.921875 3.703125 -4.078125 C 3.515625 -4.242188 3.238281 -4.328125 2.875 -4.328125 L 1.859375 -4.328125 L 1.859375 -2.46875 L 2.875 -2.46875 C 3.238281 -2.46875 3.515625 -2.546875 3.703125 -2.703125 C 3.898438 -2.867188 4 -3.097656 4 -3.390625 Z M 4 -3.390625 "/></g></g><g style="fill:#ffffff;fill-opacity:1;"><g transform="translate(241.016839, 189.369596)"><path style="stroke:none" d="M 0.625 -5.328125 L 3.046875 -5.328125 C 3.628906 -5.328125 4.140625 -5.21875 4.578125 -5 C 5.023438 -4.78125 5.367188 -4.46875 5.609375 -4.0625 C 5.859375 -3.664062 5.984375 -3.195312 5.984375 -2.65625 C 5.984375 -2.125 5.859375 -1.65625 5.609375 -1.25 C 5.367188 -0.851562 5.023438 -0.546875 4.578125 -0.328125 C 4.140625 -0.109375 3.628906 0 3.046875 0 L 0.625 0 Z M 2.984375 -1.015625 C 3.523438 -1.015625 3.953125 -1.160156 4.265625 -1.453125 C 4.578125 -1.753906 4.734375 -2.15625 4.734375 -2.65625 C 4.734375 -3.164062 4.578125 -3.566406 4.265625 -3.859375 C 3.953125 -4.160156 3.523438 -4.3125 2.984375 -4.3125 L 1.859375 -4.3125 L 1.859375 -1.015625 Z M 2.984375 -1.015625 "/></g></g><g style="fill:#ffffff;fill-opacity:1;"><g transform="translate(249.913002, 189.369596)"><path style="stroke:none" d="M 8.6875 -5.328125 L 6.9375 0 L 5.609375 0 L 4.4375 -3.609375 L 3.234375 0 L 1.921875 0 L 0.171875 -5.328125 L 1.453125 -5.328125 L 2.640625 -1.578125 L 3.90625 -5.328125 L 5.046875 -5.328125 L 6.265625 -1.546875 L 7.5 -5.328125 Z M 8.6875 -5.328125 "/></g></g></g></svg>